# Blender v2.93.0 OBJ File: 'model.blend'
# www.blender.org
mtllib model.mtl
o Sphere
v 0.000000 0.216593 -0.216593
v 0.000000 -0.000000 -0.306308
v 0.000000 -0.216593 -0.216593
v 0.000000 -0.282992 -0.117219
v 0.058610 0.282992 -0.101515
v 0.108296 0.216593 -0.187575
v 0.141496 0.117219 -0.245078
v 0.153154 -0.000000 -0.265271
v 0.141496 -0.117219 -0.245078
v 0.108296 -0.216593 -0.187575
v 0.058610 -0.282992 -0.101515
v 0.101515 0.282992 -0.058610
v 0.187575 0.216593 -0.108296
v 0.245078 0.117219 -0.141496
v 0.265271 -0.000000 -0.153154
v 0.245078 -0.117219 -0.141496
v 0.187575 -0.216593 -0.108296
v 0.101515 -0.282992 -0.058610
v 0.117219 0.282992 0.000000
v 0.216593 0.216593 0.000000
v 0.282992 0.117219 0.000000
v 0.306308 -0.000000 0.000000
v 0.282992 -0.117219 0.000000
v 0.216593 -0.216593 0.000000
v 0.117219 -0.282992 0.000000
v 0.101515 0.282992 0.058610
v 0.187575 0.216593 0.108296
v 0.245078 0.117219 0.141496
v 0.265271 -0.000000 0.153154
v 0.245078 -0.117219 0.141496
v 0.187575 -0.216593 0.108296
v 0.101515 -0.282992 0.058610
v 0.058610 0.282992 0.101515
v 0.108296 0.216593 0.187575
v 0.141496 0.117219 0.245078
v 0.153154 -0.000000 0.265271
v 0.141496 -0.117219 0.245078
v 0.108296 -0.216593 0.187575
v 0.058610 -0.282992 0.101515
v -0.000000 0.306308 0.000000
v -0.000000 0.282992 0.117219
v -0.000000 0.216593 0.216593
v -0.000000 0.117219 0.282992
v 0.000000 -0.000000 0.306308
v -0.000000 -0.117219 0.282992
v -0.000000 -0.216593 0.216593
v -0.000000 -0.282992 0.117219
v -0.058610 0.282992 0.101515
v -0.108296 0.216593 0.187575
v -0.141496 0.117219 0.245078
v -0.153154 -0.000000 0.265271
v -0.141496 -0.117219 0.245078
v -0.108296 -0.216593 0.187575
v -0.058610 -0.282992 0.101515
v 0.000000 -0.306308 0.000000
v -0.101515 0.282992 0.058610
v -0.187575 0.216593 0.108296
v -0.245078 0.117219 0.141496
v -0.265271 -0.000000 0.153154
v -0.245078 -0.117219 0.141496
v -0.187575 -0.216593 0.108296
v -0.101515 -0.282992 0.058610
v -0.117219 0.282992 0.000000
v -0.216593 0.216593 0.000000
v -0.282992 0.117219 -0.000000
v -0.306308 -0.000000 0.000000
v -0.282992 -0.117219 0.000000
v -0.216593 -0.216593 0.000000
v -0.117219 -0.282992 0.000000
v -0.101515 0.282992 -0.058610
v -0.187575 0.216593 -0.108296
v -0.245078 0.117219 -0.141496
v -0.265271 -0.000000 -0.153154
v -0.245078 -0.117219 -0.141496
v -0.187575 -0.216593 -0.108296
v -0.101515 -0.282992 -0.058610
v -0.058610 0.282992 -0.101515
v -0.108296 0.216593 -0.187575
v -0.141496 0.117219 -0.245078
v -0.153154 -0.000000 -0.265271
v -0.141496 -0.117219 -0.245078
v -0.108296 -0.216593 -0.187575
v -0.058610 -0.282992 -0.101515
v 0.000000 0.282992 -0.117219
v 0.000000 0.117219 -0.282992
v 0.000000 -0.117219 -0.282992
vt 0.320647 0.631268
vt 0.284518 0.713416
vt 0.209803 0.704788
vt 0.223027 0.619995
vt 0.419182 0.288619
vt 0.482963 0.227782
vt 0.459618 0.311758
vt 0.160988 0.227782
vt 0.097207 0.162185
vt 0.137642 0.139046
vt 0.043136 0.101815
vt 0.007008 0.055863
vt 0.104627 0.000000
vt 0.117851 0.059060
vt 0.333333 0.540353
vt 0.227671 0.528152
vt 0.365112 0.335434
vt 0.439826 0.378190
vt 0.320647 0.454514
vt 0.223027 0.443241
vt 0.209803 0.378190
vt 0.110306 0.443241
vt 0.123530 0.378190
vt 0.110306 0.619995
vt 0.105662 0.528152
vt 0.506308 0.311758
vt 0.526099 0.378190
vt 0.204124 0.059060
vt 0.184333 0.139046
vt 0.123530 0.704788
vt 0.278839 0.101815
vt 0.224768 0.162185
vt 0.000000 0.540353
vt 0.012687 0.454514
vt 0.048816 0.713416
vt 0.012687 0.631268
vt 0.546744 0.288619
vt 0.217348 0.000000
vt 0.314968 0.055863
vt 0.600814 0.335434
vt 0.653980 0.460338
vt 0.666667 0.551252
vt 0.561004 0.563453
vt 0.556361 0.471610
vt 0.653980 0.637092
vt 0.617851 0.704788
vt 0.543137 0.713416
vt 0.556361 0.648364
vt 0.570089 0.248541
vt 0.248114 0.202263
vt 0.617851 0.378190
vt 0.543137 0.386817
vt 0.643951 0.261380
vt 0.321975 0.175869
vt 0.248114 0.248541
vt 0.443639 0.471610
vt 0.456864 0.386817
vt 0.443639 0.648364
vt 0.438996 0.563453
vt 0.570089 0.202263
vt 0.643951 0.175869
vt 0.321975 0.261380
vt 0.456864 0.713416
vt 0.346020 0.637092
vt 0.333333 0.551252
vt 0.546744 0.162185
vt 0.600814 0.101815
vt 0.278839 0.335434
vt 0.224768 0.288619
vt 0.346020 0.460338
vt 0.382149 0.704788
vt 0.382149 0.378190
vt 0.204124 0.378190
vt 0.184333 0.311758
vt 0.987313 0.460338
vt 1.000000 0.551252
vt 0.894338 0.563453
vt 0.889694 0.471610
vt 0.636943 0.055863
vt 0.526099 0.059059
vt 0.539324 0.000000
vt 0.506308 0.139046
vt 0.951185 0.378190
vt 0.876470 0.386817
vt 0.987313 0.637092
vt 0.889694 0.648364
vt 0.876470 0.713416
vt 0.790197 0.713416
vt 0.776973 0.648364
vt 0.459618 0.139046
vt 0.137642 0.311758
vt 0.776973 0.471610
vt 0.790197 0.386817
vt 0.772329 0.563453
vt 0.439826 0.059059
vt 0.117851 0.378190
vt 0.097207 0.288619
vt 0.679354 0.460338
vt 0.715482 0.378190
vt 0.679354 0.637092
vt 0.666667 0.551252
vt 0.419182 0.162185
vt 0.365112 0.101815
vt 0.043137 0.335434
vt 0.426602 0.000000
vt 0.328983 0.055863
vt 0.395837 0.202263
vt 0.321975 0.175869
vt 0.000000 0.261380
vt 0.073862 0.248541
vt 0.964597 0.082148
vt 0.977284 0.173063
vt 0.871622 0.185264
vt 0.866978 0.093421
vt 0.964597 0.258902
vt 0.928469 0.326598
vt 0.853754 0.335226
vt 0.866978 0.270174
vt 0.928469 0.000000
vt 0.853754 0.008627
vt 0.000000 0.175869
vt 0.073862 0.202263
vt 0.749613 0.185264
vt 0.754257 0.093421
vt 0.767481 0.335226
vt 0.754257 0.270174
vt 0.395837 0.248541
vt 0.767481 0.008627
vt 0.321975 0.261380
vt 0.656637 0.082148
vt 0.692766 0.000000
vt 0.656637 0.258902
vt 0.643951 0.173063
vt 0.692766 0.326598
vn 0.0000 0.3717 -0.9283
vn 0.0000 0.6913 -0.7226
vn 0.3613 0.6913 -0.6258
vn 0.4642 0.3717 -0.8039
vn 0.0000 0.9122 -0.4097
vn 0.0000 1.0000 0.0000
vn 0.2048 0.9122 -0.3548
vn 0.0000 -1.0000 0.0000
vn 0.0000 -0.9122 -0.4097
vn 0.2048 -0.9122 -0.3548
vn 0.0000 -0.6913 -0.7226
vn 0.0000 -0.3717 -0.9283
vn 0.4642 -0.3717 -0.8039
vn 0.3613 -0.6913 -0.6258
vn 0.0000 0.0000 -1.0000
vn 0.5000 0.0000 -0.8660
vn 0.8039 -0.3717 -0.4642
vn 0.6258 -0.6913 -0.3613
vn 0.8039 0.3717 -0.4642
vn 0.8660 0.0000 -0.5000
vn 0.3548 0.9122 -0.2048
vn 0.6258 0.6913 -0.3613
vn 0.3548 -0.9122 -0.2048
vn 0.7226 -0.6913 0.0000
vn 0.4097 -0.9122 0.0000
vn 1.0000 0.0000 0.0000
vn 0.9283 -0.3717 0.0000
vn 0.7226 0.6913 0.0000
vn 0.9283 0.3717 0.0000
vn 0.4097 0.9122 0.0000
vn 0.8660 0.0000 0.5000
vn 0.8039 -0.3717 0.4642
vn 0.6258 0.6913 0.3613
vn 0.8039 0.3717 0.4642
vn 0.3548 0.9122 0.2048
vn 0.3548 -0.9122 0.2048
vn 0.6258 -0.6913 0.3613
vn 0.2048 -0.9122 0.3548
vn 0.4642 -0.3717 0.8039
vn 0.3613 -0.6913 0.6258
vn 0.4642 0.3717 0.8039
vn 0.5000 0.0000 0.8660
vn 0.2048 0.9122 0.3548
vn 0.3613 0.6913 0.6258
vn 0.0000 0.3717 0.9283
vn 0.0000 0.0000 1.0000
vn 0.0000 0.9122 0.4097
vn 0.0000 0.6913 0.7226
vn 0.0000 -0.6913 0.7226
vn 0.0000 -0.9122 0.4097
vn 0.0000 -0.3717 0.9283
vn -0.3613 -0.6913 0.6258
vn -0.2048 -0.9122 0.3548
vn -0.5000 0.0000 0.8660
vn -0.4642 -0.3717 0.8039
vn -0.3613 0.6913 0.6258
vn -0.4642 0.3717 0.8039
vn -0.2048 0.9122 0.3548
vn -0.6258 0.6913 0.3613
vn -0.8039 0.3717 0.4642
vn -0.3548 0.9122 0.2048
vn -0.3548 -0.9122 0.2048
vn -0.8039 -0.3717 0.4642
vn -0.6258 -0.6913 0.3613
vn -0.8660 0.0000 0.5000
vn -0.4097 -0.9122 0.0000
vn -0.9283 -0.3717 0.0000
vn -0.7226 -0.6913 0.0000
vn -0.9283 0.3717 0.0000
vn -1.0000 0.0000 0.0000
vn -0.4097 0.9122 0.0000
vn -0.7226 0.6913 0.0000
vn -0.3548 0.9122 -0.2048
vn -0.6258 0.6913 -0.3613
vn -0.6258 -0.6913 -0.3613
vn -0.3548 -0.9122 -0.2048
vn -0.8660 0.0000 -0.5000
vn -0.8039 -0.3717 -0.4642
vn -0.8039 0.3717 -0.4642
vn -0.3613 -0.6913 -0.6258
vn -0.2048 -0.9122 -0.3548
vn -0.5000 0.0000 -0.8660
vn -0.4642 -0.3717 -0.8039
vn -0.3613 0.6913 -0.6258
vn -0.4642 0.3717 -0.8039
vn -0.2048 0.9122 -0.3548
usemtl Material.001
s 1
f 85/1/1 1/2/2 6/3/3 7/4/4
f 84/5/5 40/6/6 5/7/7
f 55/8/8 4/9/9 11/10/10
f 3/11/11 86/12/12 9/13/13 10/14/14
f 2/15/15 85/1/1 7/4/4 8/16/16
f 1/17/2 84/5/5 5/7/7 6/18/3
f 4/9/9 3/11/11 10/14/14 11/10/10
f 86/19/12 2/15/15 8/16/16 9/20/13
f 10/21/14 9/20/13 16/22/17 17/23/18
f 8/16/16 7/4/4 14/24/19 15/25/20
f 6/18/3 5/7/7 12/26/21 13/27/22
f 11/10/10 10/14/14 17/28/18 18/29/23
f 9/20/13 8/16/16 15/25/20 16/22/17
f 7/4/4 6/3/3 13/30/22 14/24/19
f 5/7/7 40/6/6 12/26/21
f 55/8/8 11/10/10 18/29/23
f 18/29/23 17/28/18 24/31/24 25/32/25
f 16/22/17 15/25/20 22/33/26 23/34/27
f 14/24/19 13/30/22 20/35/28 21/36/29
f 12/26/21 40/6/6 19/37/30
f 55/8/8 18/29/23 25/32/25
f 17/28/18 16/38/17 23/39/27 24/31/24
f 15/25/20 14/24/19 21/36/29 22/33/26
f 13/27/22 12/26/21 19/37/30 20/40/28
f 23/41/27 22/42/26 29/43/31 30/44/32
f 21/45/29 20/46/28 27/47/33 28/48/34
f 19/37/30 40/6/6 26/49/35
f 55/8/8 25/32/25 32/50/36
f 24/51/24 23/41/27 30/44/32 31/52/37
f 22/42/26 21/45/29 28/48/34 29/43/31
f 20/40/28 19/37/30 26/49/35 27/53/33
f 25/32/25 24/31/24 31/54/37 32/50/36
f 55/8/8 32/50/36 39/55/38
f 31/52/37 30/44/32 37/56/39 38/57/40
f 29/43/31 28/48/34 35/58/41 36/59/42
f 27/53/33 26/49/35 33/60/43 34/61/44
f 32/50/36 31/54/37 38/62/40 39/55/38
f 30/44/32 29/43/31 36/59/42 37/56/39
f 28/48/34 27/47/33 34/63/44 35/58/41
f 26/49/35 40/6/6 33/60/43
f 36/59/42 35/58/41 43/64/45 44/65/46
f 34/61/44 33/60/43 41/66/47 42/67/48
f 39/55/38 38/62/40 46/68/49 47/69/50
f 37/56/39 36/59/42 44/65/46 45/70/51
f 35/58/41 34/63/44 42/71/48 43/64/45
f 33/60/43 40/6/6 41/66/47
f 55/8/8 39/55/38 47/69/50
f 38/57/40 37/56/39 45/70/51 46/72/49
f 47/69/50 46/68/49 53/73/52 54/74/53
f 45/75/51 44/76/46 51/77/54 52/78/55
f 43/79/45 42/67/48 49/80/56 50/81/57
f 41/66/47 40/6/6 48/82/58
f 55/8/8 47/69/50 54/74/53
f 46/83/49 45/75/51 52/78/55 53/84/52
f 44/76/46 43/85/45 50/86/57 51/77/54
f 42/67/48 41/66/47 48/82/58 49/80/56
f 50/86/57 49/87/56 57/88/59 58/89/60
f 48/82/58 40/6/6 56/90/61
f 55/8/8 54/74/53 62/91/62
f 53/84/52 52/78/55 60/92/63 61/93/64
f 51/77/54 50/86/57 58/89/60 59/94/65
f 49/80/56 48/82/58 56/90/61 57/95/59
f 54/74/53 53/73/52 61/96/64 62/91/62
f 52/78/55 51/77/54 59/94/65 60/92/63
f 55/8/8 62/91/62 69/97/66
f 61/93/64 60/92/63 67/98/67 68/99/68
f 59/94/65 58/89/60 65/100/69 66/101/70
f 57/95/59 56/90/61 63/102/71 64/103/72
f 62/91/62 61/96/64 68/104/68 69/97/66
f 60/92/63 59/94/65 66/101/70 67/98/67
f 58/105/60 57/95/59 64/103/72 65/106/69
f 56/90/61 40/6/6 63/102/71
f 64/103/72 63/102/71 70/107/73 71/108/74
f 69/97/66 68/104/68 75/109/75 76/110/76
f 67/111/67 66/112/70 73/113/77 74/114/78
f 65/115/69 64/116/72 71/117/74 72/118/79
f 63/102/71 40/6/6 70/107/73
f 55/8/8 69/97/66 76/110/76
f 68/119/68 67/111/67 74/114/78 75/120/75
f 66/112/70 65/115/69 72/118/79 73/113/77
f 76/110/76 75/109/75 82/121/80 83/122/81
f 74/114/78 73/113/77 80/123/82 81/124/83
f 72/118/79 71/117/74 78/125/84 79/126/85
f 70/107/73 40/6/6 77/127/86
f 55/8/8 76/110/76 83/122/81
f 75/120/75 74/114/78 81/124/83 82/128/80
f 73/113/77 72/118/79 79/126/85 80/123/82
f 71/108/74 70/107/73 77/127/86 78/129/84
f 77/127/86 40/6/6 84/5/5
f 55/8/8 83/122/81 4/9/9
f 82/128/80 81/124/83 86/130/12 3/131/11
f 80/123/82 79/126/85 85/132/1 2/133/15
f 78/129/84 77/127/86 84/5/5 1/17/2
f 83/122/81 82/121/80 3/11/11 4/9/9
f 81/124/83 80/123/82 2/133/15 86/130/12
f 79/126/85 78/125/84 1/134/2 85/132/1
